<?xml version="1.0" encoding="utf-8"?>
<!-- Generator: Adobe Illustrator 22.1.0, SVG Export Plug-In . SVG Version: 6.00 Build 0)  -->
<svg version="1.1" id="Layer_1" xmlns="http://www.w3.org/2000/svg" xmlns:xlink="http://www.w3.org/1999/xlink" x="0px" y="0px"
	 viewBox="0 0 370.5 370.5" style="enable-background:new 0 0 370.5 370.5;" xml:space="preserve">
<style type="text/css">
	.st0{fill:#212121;}
</style>
<path class="st0" d="M185.8,9.2C88.3,9.2,9.3,88.2,9.3,185.7c0,97.5,79,176.5,176.5,176.5c97.5,0,176.5-79,176.5-176.5
	C362.3,88.2,283.2,9.2,185.8,9.2z M234.4,118.6l-18.9,0c-14.8,0-17.7,7-17.7,17.4v22.8h35.4l-4.6,35.7h-30.8v91.7h-36.9v-91.7h-30.8
	v-35.7h30.8v-26.3c0-30.6,18.7-47.2,45.9-47.2c13.1,0,24.3,1,27.6,1.4V118.6z"/>
</svg>
