<?xml version="1.0" encoding="utf-8"?>
<!-- Generator: Adobe Illustrator 22.1.0, SVG Export Plug-In . SVG Version: 6.00 Build 0)  -->
<svg version="1.1" id="Layer_1" xmlns="http://www.w3.org/2000/svg" xmlns:xlink="http://www.w3.org/1999/xlink" x="0px" y="0px"
	 viewBox="0 0 370.5 370.5" style="enable-background:new 0 0 370.5 370.5;" xml:space="preserve">
<style type="text/css">
	.st0{fill:#212121;}
</style>
<g>
	<path class="st0" d="M185.9,157.3c-7.6,0-14.7,3-20.1,8.3c-11.1,11.1-11.1,29.1,0,40.2c5.4,5.4,12.5,8.3,20.1,8.3
		c7.6,0,14.7-3,20.1-8.3c11.1-11.1,11.1-29.1,0-40.2C200.6,160.2,193.5,157.3,185.9,157.3z"/>
	<path class="st0" d="M241.7,257.9c4.1-1.6,6.9-3.5,9.9-6.4c2.9-2.9,4.8-5.8,6.4-9.8c1.2-3.2,2.7-8,3-16.9c0.5-10,0.6-13,0.6-39.2
		c0-26-0.1-29-0.6-39c-0.4-8.9-1.8-13.7-3-16.8c-1.6-4.1-3.5-6.9-6.4-9.9c-3-3-5.8-4.8-9.8-6.4c-3.2-1.2-8-2.7-16.9-3
		c-10.1-0.5-13.2-0.6-39.1-0.6s-29,0.1-39.1,0.6c-8.6,0.4-13.4,1.7-16.8,3c-4,1.6-6.8,3.4-9.8,6.4c-3,3-4.8,5.8-6.4,9.8
		c-1.2,3.2-2.7,8-3,16.9c-0.5,10.1-0.6,13.2-0.6,39.2c0,26,0.1,29,0.6,39c0.4,8.6,1.7,13.4,3,16.8c1.6,4.1,3.5,6.9,6.4,9.9
		c3,3,5.8,4.8,9.8,6.4c3.2,1.2,8,2.7,16.9,3.1c10.1,0.5,13.2,0.6,39.1,0.6c26.1,0,29.1-0.1,39.1-0.6
		C233.8,260.6,238.6,259.1,241.7,257.9z M237.8,118c8.7,0,15.7,7,15.7,15.7c0,8.7-7,15.7-15.7,15.7c-8.7,0-15.7-7-15.7-15.7
		C222.1,125,229.1,118,237.8,118z M185.8,239.6c-29.8,0-54-24.2-54-54c0-29.8,24.2-54,54-54c29.8,0,54,24.2,54,54
		C239.8,215.4,215.6,239.6,185.8,239.6z"/>
	<path class="st0" d="M185.2,9.2C87.7,9.2,8.7,88.3,8.7,185.8s79.1,176.6,176.6,176.6s176.6-79.1,176.6-176.6S282.8,9.2,185.2,9.2z
		 M120.8,281.5c-7.4-2.9-13.1-6.6-18.6-12.1c-5.5-5.5-9.2-11.2-12.1-18.6c-2.9-7.5-4.4-15.2-4.8-24.9c-0.5-10.4-0.6-13.5-0.6-40.3
		c0-26.8,0.1-29.9,0.6-40.3c0.5-9.9,1.9-17.6,4.8-24.9c2.9-7.3,6.6-13.1,12.1-18.6c5.5-5.5,11.2-9.2,18.6-12.1
		c7.5-2.9,15.2-4.4,24.9-4.8c10.4-0.5,13.5-0.6,40.3-0.6s29.9,0.1,40.3,0.6c9.9,0.5,17.6,2,24.9,4.8c7.3,2.9,13.1,6.6,18.6,12.1
		c5.5,5.5,9.2,11.2,12.1,18.6c2.9,7.5,4.4,15.2,4.8,24.8c0.5,10.4,0.6,13.5,0.6,40.3c-0.1,26.3-0.2,29.7-0.6,40.3
		c-0.5,9.9-1.9,17.6-4.8,24.9c-2.9,7.4-6.6,13.1-12.1,18.6c-5.5,5.5-11.2,9.2-18.6,12.1c-7.5,2.9-15.2,4.4-24.9,4.8
		c-10.4,0.5-13.5,0.6-40.3,0.6s-29.9-0.1-40.3-0.6C135.8,285.8,128.1,284.3,120.8,281.5z"/>
</g>
</svg>
