<?xml version="1.0" encoding="utf-8"?>
<!-- Generator: Adobe Illustrator 22.1.0, SVG Export Plug-In . SVG Version: 6.00 Build 0)  -->
<svg version="1.1" id="Layer_1" xmlns="http://www.w3.org/2000/svg" xmlns:xlink="http://www.w3.org/1999/xlink" x="0px" y="0px"
	 viewBox="0 0 370.5 370.5" style="enable-background:new 0 0 370.5 370.5;" xml:space="preserve">
<style type="text/css">
	.st0{fill:#212121;}
</style>
<path class="st0" d="M185.4,9.1C87.9,9.1,8.9,88.1,8.9,185.6c0,97.5,79,176.5,176.5,176.5c97.5,0,176.5-79,176.5-176.5
	C361.9,88.1,282.8,9.1,185.4,9.1z M262.9,156.5c0.1,1.6,0.1,3.2,0.1,4.8c0,48.6-37,104.7-104.7,104.7v0c-20,0-39.6-5.7-56.4-16.5
	c2.9,0.4,5.8,0.5,8.8,0.5c16.6,0,32.7-5.5,45.7-15.8c-15.8-0.3-29.6-10.6-34.4-25.6c5.5,1.1,11.2,0.8,16.6-0.6
	c-17.2-3.5-29.5-18.6-29.5-36.1v-0.5c5.1,2.9,10.8,4.4,16.7,4.6c-16.2-10.8-21.2-32.3-11.4-49.1c18.7,23,46.2,37,75.8,38.5
	c-3-12.8,1.1-26.2,10.7-35.2c14.8-13.9,38.1-13.2,52.1,1.6c8.2-1.6,16.1-4.7,23.4-8.9c-2.7,8.5-8.5,15.8-16.2,20.3
	c7.3-0.9,14.4-2.8,21.1-5.8C276.4,144.8,270.1,151.3,262.9,156.5z"/>
</svg>
